{"accessors":[{"bufferView":0,"byteOffset":0,"componentType":5126,"count":4,"max":[0.1,0.07,0.15],"min":[0.1,0.0,-0.15],"type":"VEC3"},{"bufferView":0,"byteOffset":48,"componentType":5126,"count":4,"max":[0.1,0.07,-0.15],"min":[-0.1,0.0,-0.15],"type":"VEC3"},{"bufferView":0,"byteOffset":96,"componentType":5126,"count":4,"max":[-0.1,0.07,0.15],"min":[-0.1,0.0,-0.15],"type":"VEC3"},{"bufferView":0,"byteOffset":144,"componentType":5126,"count":4,"max":[0.1,0.07,0.15],"min":[-0.1,0.0,0.15],"type":"VEC3"},{"bufferView":0,"byteOffset":192,"componentType":5126,"count":4,"max":[0.1,0.0,0.15],"min":[-0.1,0.0,-0.15],"type":"VEC3"},{"bufferView":0,"byteOffset":240,"componentType":5126,"count":4,"max":[0.1,0.07,0.15],"min":[-0.1,0.07,-0.15],"type":"VEC3"},{"bufferView":0,"byteOffset":288,"componentType":5126,"count":254,"max":[0.020000000000000068,0.06747901978505512,0.06750000000000003],"min":[-5.244173301115327e-17,-0.06747901978505514,-0.06750000000000002],"type":"VEC3"},{"bufferView":0,"byteOffset":3336,"componentType":5126,"count":126,"max":[6.909018165741195e-17,0.06747901978505515,0.06750000000000005],"min":[-6.909018165741196e-17,-0.06747901978505516,-0.06750000000000005],"type":"VEC3"},{"bufferView":0,"byteOffset":4848,"componentType":5126,"count":126,"max":[0.020000000000000099,0.06747901978505514,0.06750000000000006],"min":[0.01999999999999996,-0.06747901978505516,-0.06750000000000003],"type":"VEC3"},{"bufferView":0,"byteOffset":6360,"componentType":5126,"count":254,"max":[-0.09999997580551297,0.10247904839528346,-0.015000000000000024],"min":[-0.12000000798201843,-0.03247899594319482,-0.15],"type":"VEC3"},{"bufferView":0,"byteOffset":9408,"componentType":5126,"count":126,"max":[-0.09999997580551307,0.10247904362691167,-0.015000000000000048],"min":[-0.10000000798201907,-0.03247899594319483,-0.15000000000000009],"type":"VEC3"},{"bufferView":0,"byteOffset":10920,"componentType":5126,"count":126,"max":[-0.1199999758055125,0.10247904839528352,-0.015000000000000054],"min":[-0.12000000798201849,-0.032478991174822977,-0.15000000000000009],"type":"VEC3"},{"bufferView":0,"byteOffset":12432,"componentType":5126,"count":254,"max":[0.016738422,0.02,-0.09326678060283553],"min":[-0.016738422,-2.063438706876999e-18,-0.12673321939716448],"type":"VEC3"},{"bufferView":0,"byteOffset":15480,"componentType":5126,"count":252,"max":[0.016738422,1.7763568394002506e-17,-0.09326678060283553],"min":[-0.016738422,-2.063438706876999e-18,-0.12673321939716448],"type":"VEC3"},{"bufferView":0,"byteOffset":18504,"componentType":5126,"count":126,"max":[0.016738422,0.02,-0.09326678060283553],"min":[-0.016738422,0.01999999999999999,-0.12673321939716448],"type":"VEC3"},{"bufferView":0,"byteOffset":20016,"componentType":5126,"count":2160,"max":[0.01499533773001225,1.7763568394002506e-17,-0.09515858199999997],"min":[-0.014995337730012243,-0.015,-0.125158582],"type":"VEC3"},{"bufferView":1,"byteOffset":0,"componentType":5126,"count":4,"type":"VEC3"},{"bufferView":1,"byteOffset":48,"componentType":5126,"count":4,"type":"VEC3"},{"bufferView":1,"byteOffset":96,"componentType":5126,"count":4,"type":"VEC3"},{"bufferView":1,"byteOffset":144,"componentType":5126,"count":4,"type":"VEC3"},{"bufferView":1,"byteOffset":192,"componentType":5126,"count":4,"type":"VEC3"},{"bufferView":1,"byteOffset":240,"componentType":5126,"count":4,"type":"VEC3"},{"bufferView":1,"byteOffset":288,"componentType":5126,"count":254,"type":"VEC3"},{"bufferView":1,"byteOffset":3336,"componentType":5126,"count":126,"type":"VEC3"},{"bufferView":1,"byteOffset":4848,"componentType":5126,"count":126,"type":"VEC3"},{"bufferView":1,"byteOffset":6360,"componentType":5126,"count":254,"type":"VEC3"},{"bufferView":1,"byteOffset":9408,"componentType":5126,"count":126,"type":"VEC3"},{"bufferView":1,"byteOffset":10920,"componentType":5126,"count":126,"type":"VEC3"},{"bufferView":1,"byteOffset":12432,"componentType":5126,"count":254,"type":"VEC3"},{"bufferView":1,"byteOffset":15480,"componentType":5126,"count":252,"type":"VEC3"},{"bufferView":1,"byteOffset":18504,"componentType":5126,"count":126,"type":"VEC3"},{"bufferView":1,"byteOffset":20016,"componentType":5126,"count":2160,"type":"VEC3"},{"bufferView":2,"byteOffset":0,"componentType":5123,"count":6,"type":"SCALAR"},{"bufferView":2,"byteOffset":12,"componentType":5123,"count":6,"type":"SCALAR"},{"bufferView":2,"byteOffset":24,"componentType":5123,"count":6,"type":"SCALAR"},{"bufferView":2,"byteOffset":36,"componentType":5123,"count":6,"type":"SCALAR"},{"bufferView":2,"byteOffset":48,"componentType":5123,"count":6,"type":"SCALAR"},{"bufferView":2,"byteOffset":60,"componentType":5123,"count":6,"type":"SCALAR"},{"bufferView":2,"byteOffset":72,"componentType":5123,"count":756,"type":"SCALAR"},{"bufferView":2,"byteOffset":1584,"componentType":5123,"count":372,"type":"SCALAR"},{"bufferView":2,"byteOffset":2328,"componentType":5123,"count":372,"type":"SCALAR"},{"bufferView":2,"byteOffset":3072,"componentType":5123,"count":756,"type":"SCALAR"},{"bufferView":2,"byteOffset":4584,"componentType":5123,"count":372,"type":"SCALAR"},{"bufferView":2,"byteOffset":5328,"componentType":5123,"count":372,"type":"SCALAR"},{"bufferView":2,"byteOffset":6072,"componentType":5123,"count":756,"type":"SCALAR"},{"bufferView":2,"byteOffset":7584,"componentType":5123,"count":756,"type":"SCALAR"},{"bufferView":2,"byteOffset":9096,"componentType":5123,"count":372,"type":"SCALAR"},{"bufferView":2,"byteOffset":9840,"componentType":5123,"count":12381,"type":"SCALAR"}],"asset":{"generator":"Open CASCADE Technology 7.6 [dev.opencascade.org]","version":"2.0"},"bufferViews":[{"buffer":0,"byteLength":45936,"byteOffset":0,"byteStride":12,"target":34962},{"buffer":0,"byteLength":45936,"byteOffset":45936,"byteStride":12,"target":34962},{"buffer":0,"byteLength":34604,"byteOffset":91872,"target":34963}],"buffers":[{"byteLength":126476,"uri":"diff_bot_EXPORT_TEST.bin"}],"materials":[{"name":"mat_0","pbrMetallicRoughness":{"baseColorFactor":[0.6038273572921753,0.6038273572921753,0.6038273572921753,1.0]},"doubleSided":true}],"meshes":[{"name":"BodyBase","primitives":[{"attributes":{"NORMAL":16,"POSITION":0},"indices":32,"material":0,"mode":4},{"attributes":{"NORMAL":17,"POSITION":1},"indices":33,"material":0,"mode":4},{"attributes":{"NORMAL":18,"POSITION":2},"indices":34,"material":0,"mode":4},{"attributes":{"NORMAL":19,"POSITION":3},"indices":35,"material":0,"mode":4},{"attributes":{"NORMAL":20,"POSITION":4},"indices":36,"material":0,"mode":4},{"attributes":{"NORMAL":21,"POSITION":5},"indices":37,"material":0,"mode":4}]},{"name":"LeftWheel","primitives":[{"attributes":{"NORMAL":22,"POSITION":6},"indices":38,"material":0,"mode":4},{"attributes":{"NORMAL":23,"POSITION":7},"indices":39,"material":0,"mode":4},{"attributes":{"NORMAL":24,"POSITION":8},"indices":40,"material":0,"mode":4}]},{"name":"RightWheel","primitives":[{"attributes":{"NORMAL":25,"POSITION":9},"indices":41,"material":0,"mode":4},{"attributes":{"NORMAL":26,"POSITION":10},"indices":42,"material":0,"mode":4},{"attributes":{"NORMAL":27,"POSITION":11},"indices":43,"material":0,"mode":4}]},{"name":"Caster","primitives":[{"attributes":{"NORMAL":28,"POSITION":12},"indices":44,"material":0,"mode":4},{"attributes":{"NORMAL":29,"POSITION":13},"indices":45,"material":0,"mode":4},{"attributes":{"NORMAL":30,"POSITION":14},"indices":46,"material":0,"mode":4},{"attributes":{"NORMAL":31,"POSITION":15},"indices":47,"material":0,"mode":4}]}],"nodes":[{"children":[1,2,3,4],"name":"diff_bot"},{"mesh":0,"name":"BodyBase"},{"translation":[0.1,0.035,-0.0825],"mesh":1,"name":"LeftWheel"},{"mesh":2,"name":"RightWheel"},{"translation":[-0.003,-0.02,0.23600000000000002],"mesh":3,"name":"Caster"}],"scene":0,"scenes":[{"nodes":[0]}]}